<svg xmlns="http://www.w3.org/2000/svg" width="1240" height="680" viewBox="0 0 1240 680" role="img" aria-labelledby="title desc"><title id="title">Progressive reciprocal transfer curves</title><desc id="desc">Guarded ensemble EE MAE at each labelled prefix for B5, P3, and P4.</desc><rect width="100%" height="100%" fill="#ffffff"/><style>text{font-family:Arial,Helvetica,sans-serif;fill:#1f2937} .grid{stroke:#e5e7eb;stroke-width:1}.frame{stroke:#374151;stroke-width:1;fill:none} .axis{stroke:#374151;stroke-width:1}.tick{font-size:12px}.label{font-size:13px} .title{font-size:18px;font-weight:700}.subtitle{font-size:12px;fill:#4b5563} .legend{font-size:12px}</style><g aria-label="CMC-Por → P7"><text class="title" x="30" y="92">CMC-Por → P7</text><line class="grid" x1="98.00" y1="516.00" x2="592.00" y2="516.00"/><text class="tick" text-anchor="end" x="90" y="520.00">0</text><line class="grid" x1="98.00" y1="435.20" x2="592.00" y2="435.20"/><text class="tick" text-anchor="end" x="90" y="439.20">19</text><line class="grid" x1="98.00" y1="354.40" x2="592.00" y2="354.40"/><text class="tick" text-anchor="end" x="90" y="358.40">39</text><line class="grid" x1="98.00" y1="273.60" x2="592.00" y2="273.60"/><text class="tick" text-anchor="end" x="90" y="277.60">58</text><line class="grid" x1="98.00" y1="192.80" x2="592.00" y2="192.80"/><text class="tick" text-anchor="end" x="90" y="196.80">78</text><line class="grid" x1="98.00" y1="112.00" x2="592.00" y2="112.00"/><text class="tick" text-anchor="end" x="90" y="116.00">97</text><line class="grid" x1="98.00" y1="112.00" x2="98.00" y2="516.00"/><text class="tick" text-anchor="middle" x="98.00" y="536">2</text><line class="grid" x1="221.50" y1="112.00" x2="221.50" y2="516.00"/><text class="tick" text-anchor="middle" x="221.50" y="536">11</text><line class="grid" x1="345.00" y1="112.00" x2="345.00" y2="516.00"/><text class="tick" text-anchor="middle" x="345.00" y="536">20</text><line class="grid" x1="468.50" y1="112.00" x2="468.50" y2="516.00"/><text class="tick" text-anchor="middle" x="468.50" y="536">29</text><line class="grid" x1="592.00" y1="112.00" x2="592.00" y2="516.00"/><text class="tick" text-anchor="middle" x="592.00" y="536">38</text><rect class="frame" x="98" y="112" width="494" height="404"/><path d="M 98.00,483.87 L 111.72,504.63 L 125.44,492.51 L 139.17,509.58 L 152.89,503.58 L 166.61,515.10 L 180.33,452.88 L 194.06,483.53 L 207.78,504.15 L 221.50,489.19 L 235.22,507.04 L 248.94,511.81 L 262.67,513.91 L 276.39,404.29 L 290.11,481.75 L 303.83,487.77 L 317.56,505.61 L 331.28,499.49 L 345.00,508.60 L 358.72,505.27 L 372.44,469.56 L 386.17,494.26 L 399.89,514.45 L 413.61,513.26 L 427.33,489.48 L 441.06,424.70 L 454.78,162.54 L 468.50,411.87 L 482.22,501.58 L 495.94,420.12 L 509.67,442.67 L 523.39,400.63 L 537.11,387.86 L 550.83,454.17 L 564.56,480.36 L 578.28,446.47 L 592.00,420.63" fill="none" stroke="#374151" stroke-width="2.2"/><circle cx="98.00" cy="483.87" r="2.2" fill="#374151"/><circle cx="111.72" cy="504.63" r="2.2" fill="#374151"/><circle cx="125.44" cy="492.51" r="2.2" fill="#374151"/><circle cx="139.17" cy="509.58" r="2.2" fill="#374151"/><circle cx="152.89" cy="503.58" r="2.2" fill="#374151"/><circle cx="166.61" cy="515.10" r="2.2" fill="#374151"/><circle cx="180.33" cy="452.88" r="2.2" fill="#374151"/><circle cx="194.06" cy="483.53" r="2.2" fill="#374151"/><circle cx="207.78" cy="504.15" r="2.2" fill="#374151"/><circle cx="221.50" cy="489.19" r="2.2" fill="#374151"/><circle cx="235.22" cy="507.04" r="2.2" fill="#374151"/><circle cx="248.94" cy="511.81" r="2.2" fill="#374151"/><circle cx="262.67" cy="513.91" r="2.2" fill="#374151"/><circle cx="276.39" cy="404.29" r="2.2" fill="#374151"/><circle cx="290.11" cy="481.75" r="2.2" fill="#374151"/><circle cx="303.83" cy="487.77" r="2.2" fill="#374151"/><circle cx="317.56" cy="505.61" r="2.2" fill="#374151"/><circle cx="331.28" cy="499.49" r="2.2" fill="#374151"/><circle cx="345.00" cy="508.60" r="2.2" fill="#374151"/><circle cx="358.72" cy="505.27" r="2.2" fill="#374151"/><circle cx="372.44" cy="469.56" r="2.2" fill="#374151"/><circle cx="386.17" cy="494.26" r="2.2" fill="#374151"/><circle cx="399.89" cy="514.45" r="2.2" fill="#374151"/><circle cx="413.61" cy="513.26" r="2.2" fill="#374151"/><circle cx="427.33" cy="489.48" r="2.2" fill="#374151"/><circle cx="441.06" cy="424.70" r="2.2" fill="#374151"/><circle cx="454.78" cy="162.54" r="2.2" fill="#374151"/><circle cx="468.50" cy="411.87" r="2.2" fill="#374151"/><circle cx="482.22" cy="501.58" r="2.2" fill="#374151"/><circle cx="495.94" cy="420.12" r="2.2" fill="#374151"/><circle cx="509.67" cy="442.67" r="2.2" fill="#374151"/><circle cx="523.39" cy="400.63" r="2.2" fill="#374151"/><circle cx="537.11" cy="387.86" r="2.2" fill="#374151"/><circle cx="550.83" cy="454.17" r="2.2" fill="#374151"/><circle cx="564.56" cy="480.36" r="2.2" fill="#374151"/><circle cx="578.28" cy="446.47" r="2.2" fill="#374151"/><circle cx="592.00" cy="420.63" r="2.2" fill="#374151"/><path d="M 98.00,483.02 L 111.72,508.40 L 125.44,461.86 L 139.17,510.33 L 152.89,507.77 L 166.61,514.93 L 180.33,454.83 L 194.06,476.73 L 207.78,506.25 L 221.50,498.94 L 235.22,503.50 L 248.94,503.88 L 262.67,512.40 L 276.39,400.72 L 290.11,488.38 L 303.83,491.21 L 317.56,508.70 L 331.28,501.23 L 345.00,503.62 L 358.72,509.52 L 372.44,472.76 L 386.17,494.93 L 399.89,514.83 L 413.61,512.24 L 427.33,484.16 L 441.06,443.73 L 454.78,141.93 L 468.50,435.49 L 482.22,509.63 L 495.94,441.35 L 509.67,448.20 L 523.39,419.02 L 537.11,418.32 L 550.83,474.97 L 564.56,485.39 L 578.28,486.88 L 592.00,373.84" fill="none" stroke="#374151" stroke-width="2.2"/><circle cx="98.00" cy="483.02" r="2.2" fill="#374151"/><circle cx="111.72" cy="508.40" r="2.2" fill="#374151"/><circle cx="125.44" cy="461.86" r="2.2" fill="#374151"/><circle cx="139.17" cy="510.33" r="2.2" fill="#374151"/><circle cx="152.89" cy="507.77" r="2.2" fill="#374151"/><circle cx="166.61" cy="514.93" r="2.2" fill="#374151"/><circle cx="180.33" cy="454.83" r="2.2" fill="#374151"/><circle cx="194.06" cy="476.73" r="2.2" fill="#374151"/><circle cx="207.78" cy="506.25" r="2.2" fill="#374151"/><circle cx="221.50" cy="498.94" r="2.2" fill="#374151"/><circle cx="235.22" cy="503.50" r="2.2" fill="#374151"/><circle cx="248.94" cy="503.88" r="2.2" fill="#374151"/><circle cx="262.67" cy="512.40" r="2.2" fill="#374151"/><circle cx="276.39" cy="400.72" r="2.2" fill="#374151"/><circle cx="290.11" cy="488.38" r="2.2" fill="#374151"/><circle cx="303.83" cy="491.21" r="2.2" fill="#374151"/><circle cx="317.56" cy="508.70" r="2.2" fill="#374151"/><circle cx="331.28" cy="501.23" r="2.2" fill="#374151"/><circle cx="345.00" cy="503.62" r="2.2" fill="#374151"/><circle cx="358.72" cy="509.52" r="2.2" fill="#374151"/><circle cx="372.44" cy="472.76" r="2.2" fill="#374151"/><circle cx="386.17" cy="494.93" r="2.2" fill="#374151"/><circle cx="399.89" cy="514.83" r="2.2" fill="#374151"/><circle cx="413.61" cy="512.24" r="2.2" fill="#374151"/><circle cx="427.33" cy="484.16" r="2.2" fill="#374151"/><circle cx="441.06" cy="443.73" r="2.2" fill="#374151"/><circle cx="454.78" cy="141.93" r="2.2" fill="#374151"/><circle cx="468.50" cy="435.49" r="2.2" fill="#374151"/><circle cx="482.22" cy="509.63" r="2.2" fill="#374151"/><circle cx="495.94" cy="441.35" r="2.2" fill="#374151"/><circle cx="509.67" cy="448.20" r="2.2" fill="#374151"/><circle cx="523.39" cy="419.02" r="2.2" fill="#374151"/><circle cx="537.11" cy="418.32" r="2.2" fill="#374151"/><circle cx="550.83" cy="474.97" r="2.2" fill="#374151"/><circle cx="564.56" cy="485.39" r="2.2" fill="#374151"/><circle cx="578.28" cy="486.88" r="2.2" fill="#374151"/><circle cx="592.00" cy="373.84" r="2.2" fill="#374151"/><path d="M 98.00,480.19 L 111.72,507.87 L 125.44,465.66 L 139.17,507.02 L 152.89,502.95 L 166.61,510.29 L 180.33,451.13 L 194.06,486.06 L 207.78,500.58 L 221.50,496.04 L 235.22,504.00 L 248.94,500.84 L 262.67,514.27 L 276.39,398.95 L 290.11,488.90 L 303.83,494.31 L 317.56,513.69 L 331.28,501.32 L 345.00,509.83 L 358.72,507.90 L 372.44,466.41 L 386.17,496.19 L 399.89,514.11 L 413.61,511.00 L 427.33,474.03 L 441.06,469.70 L 454.78,154.52 L 468.50,439.76 L 482.22,513.16 L 495.94,448.56 L 509.67,451.37 L 523.39,433.38 L 537.11,417.58 L 550.83,482.36 L 564.56,474.60 L 578.28,471.96 L 592.00,379.08" fill="none" stroke="#374151" stroke-width="2.2"/><circle cx="98.00" cy="480.19" r="2.2" fill="#374151"/><circle cx="111.72" cy="507.87" r="2.2" fill="#374151"/><circle cx="125.44" cy="465.66" r="2.2" fill="#374151"/><circle cx="139.17" cy="507.02" r="2.2" fill="#374151"/><circle cx="152.89" cy="502.95" r="2.2" fill="#374151"/><circle cx="166.61" cy="510.29" r="2.2" fill="#374151"/><circle cx="180.33" cy="451.13" r="2.2" fill="#374151"/><circle cx="194.06" cy="486.06" r="2.2" fill="#374151"/><circle cx="207.78" cy="500.58" r="2.2" fill="#374151"/><circle cx="221.50" cy="496.04" r="2.2" fill="#374151"/><circle cx="235.22" cy="504.00" r="2.2" fill="#374151"/><circle cx="248.94" cy="500.84" r="2.2" fill="#374151"/><circle cx="262.67" cy="514.27" r="2.2" fill="#374151"/><circle cx="276.39" cy="398.95" r="2.2" fill="#374151"/><circle cx="290.11" cy="488.90" r="2.2" fill="#374151"/><circle cx="303.83" cy="494.31" r="2.2" fill="#374151"/><circle cx="317.56" cy="513.69" r="2.2" fill="#374151"/><circle cx="331.28" cy="501.32" r="2.2" fill="#374151"/><circle cx="345.00" cy="509.83" r="2.2" fill="#374151"/><circle cx="358.72" cy="507.90" r="2.2" fill="#374151"/><circle cx="372.44" cy="466.41" r="2.2" fill="#374151"/><circle cx="386.17" cy="496.19" r="2.2" fill="#374151"/><circle cx="399.89" cy="514.11" r="2.2" fill="#374151"/><circle cx="413.61" cy="511.00" r="2.2" fill="#374151"/><circle cx="427.33" cy="474.03" r="2.2" fill="#374151"/><circle cx="441.06" cy="469.70" r="2.2" fill="#374151"/><circle cx="454.78" cy="154.52" r="2.2" fill="#374151"/><circle cx="468.50" cy="439.76" r="2.2" fill="#374151"/><circle cx="482.22" cy="513.16" r="2.2" fill="#374151"/><circle cx="495.94" cy="448.56" r="2.2" fill="#374151"/><circle cx="509.67" cy="451.37" r="2.2" fill="#374151"/><circle cx="523.39" cy="433.38" r="2.2" fill="#374151"/><circle cx="537.11" cy="417.58" r="2.2" fill="#374151"/><circle cx="550.83" cy="482.36" r="2.2" fill="#374151"/><circle cx="564.56" cy="474.60" r="2.2" fill="#374151"/><circle cx="578.28" cy="471.96" r="2.2" fill="#374151"/><circle cx="592.00" cy="379.08" r="2.2" fill="#374151"/><text class="label" text-anchor="middle" x="345.00" y="560">Number of labelled substrates</text><text class="label" text-anchor="middle" transform="rotate(-90 46 314.00)" x="46" y="314.00">EE MAE (percentage points)</text></g><g aria-label="P7 → CMC-Por"><text class="title" x="640" y="92">P7 → CMC-Por</text><line class="grid" x1="708.00" y1="516.00" x2="1202.00" y2="516.00"/><text class="tick" text-anchor="end" x="700" y="520.00">0</text><line class="grid" x1="708.00" y1="435.20" x2="1202.00" y2="435.20"/><text class="tick" text-anchor="end" x="700" y="439.20">13</text><line class="grid" x1="708.00" y1="354.40" x2="1202.00" y2="354.40"/><text class="tick" text-anchor="end" x="700" y="358.40">27</text><line class="grid" x1="708.00" y1="273.60" x2="1202.00" y2="273.60"/><text class="tick" text-anchor="end" x="700" y="277.60">40</text><line class="grid" x1="708.00" y1="192.80" x2="1202.00" y2="192.80"/><text class="tick" text-anchor="end" x="700" y="196.80">53</text><line class="grid" x1="708.00" y1="112.00" x2="1202.00" y2="112.00"/><text class="tick" text-anchor="end" x="700" y="116.00">67</text><line class="grid" x1="708.00" y1="112.00" x2="708.00" y2="516.00"/><text class="tick" text-anchor="middle" x="708.00" y="536">2</text><line class="grid" x1="839.73" y1="112.00" x2="839.73" y2="516.00"/><text class="tick" text-anchor="middle" x="839.73" y="536">10</text><line class="grid" x1="955.00" y1="112.00" x2="955.00" y2="516.00"/><text class="tick" text-anchor="middle" x="955.00" y="536">17</text><line class="grid" x1="1070.27" y1="112.00" x2="1070.27" y2="516.00"/><text class="tick" text-anchor="middle" x="1070.27" y="536">24</text><line class="grid" x1="1202.00" y1="112.00" x2="1202.00" y2="516.00"/><text class="tick" text-anchor="middle" x="1202.00" y="536">32</text><rect class="frame" x="708" y="112" width="494" height="404"/><path d="M 708.00,492.24 L 724.47,308.73 L 740.93,502.27 L 757.40,456.38 L 773.87,509.62 L 790.33,502.28 L 806.80,476.84 L 823.27,474.03 L 839.73,475.21 L 856.20,504.29 L 872.67,429.15 L 889.13,506.97 L 905.60,492.04 L 922.07,413.46 L 938.53,373.60 L 955.00,494.73 L 971.47,360.12 L 987.93,467.12 L 1004.40,443.33 L 1020.87,484.54 L 1037.33,508.66 L 1053.80,506.47 L 1070.27,491.32 L 1086.73,497.72 L 1103.20,490.48 L 1119.67,439.76 L 1136.13,141.93 L 1152.60,341.22 L 1169.07,483.32 L 1185.53,248.21 L 1202.00,486.59" fill="none" stroke="#374151" stroke-width="2.2"/><circle cx="708.00" cy="492.24" r="2.2" fill="#374151"/><circle cx="724.47" cy="308.73" r="2.2" fill="#374151"/><circle cx="740.93" cy="502.27" r="2.2" fill="#374151"/><circle cx="757.40" cy="456.38" r="2.2" fill="#374151"/><circle cx="773.87" cy="509.62" r="2.2" fill="#374151"/><circle cx="790.33" cy="502.28" r="2.2" fill="#374151"/><circle cx="806.80" cy="476.84" r="2.2" fill="#374151"/><circle cx="823.27" cy="474.03" r="2.2" fill="#374151"/><circle cx="839.73" cy="475.21" r="2.2" fill="#374151"/><circle cx="856.20" cy="504.29" r="2.2" fill="#374151"/><circle cx="872.67" cy="429.15" r="2.2" fill="#374151"/><circle cx="889.13" cy="506.97" r="2.2" fill="#374151"/><circle cx="905.60" cy="492.04" r="2.2" fill="#374151"/><circle cx="922.07" cy="413.46" r="2.2" fill="#374151"/><circle cx="938.53" cy="373.60" r="2.2" fill="#374151"/><circle cx="955.00" cy="494.73" r="2.2" fill="#374151"/><circle cx="971.47" cy="360.12" r="2.2" fill="#374151"/><circle cx="987.93" cy="467.12" r="2.2" fill="#374151"/><circle cx="1004.40" cy="443.33" r="2.2" fill="#374151"/><circle cx="1020.87" cy="484.54" r="2.2" fill="#374151"/><circle cx="1037.33" cy="508.66" r="2.2" fill="#374151"/><circle cx="1053.80" cy="506.47" r="2.2" fill="#374151"/><circle cx="1070.27" cy="491.32" r="2.2" fill="#374151"/><circle cx="1086.73" cy="497.72" r="2.2" fill="#374151"/><circle cx="1103.20" cy="490.48" r="2.2" fill="#374151"/><circle cx="1119.67" cy="439.76" r="2.2" fill="#374151"/><circle cx="1136.13" cy="141.93" r="2.2" fill="#374151"/><circle cx="1152.60" cy="341.22" r="2.2" fill="#374151"/><circle cx="1169.07" cy="483.32" r="2.2" fill="#374151"/><circle cx="1185.53" cy="248.21" r="2.2" fill="#374151"/><circle cx="1202.00" cy="486.59" r="2.2" fill="#374151"/><path d="M 708.00,514.93 L 724.47,282.37 L 740.93,446.40 L 757.40,495.78 L 773.87,512.99 L 790.33,454.96 L 806.80,467.80 L 823.27,482.81 L 839.73,490.01 L 856.20,497.62 L 872.67,391.03 L 889.13,501.16 L 905.60,477.76 L 922.07,426.98 L 938.53,381.14 L 955.00,512.79 L 971.47,368.83 L 987.93,466.78 L 1004.40,439.73 L 1020.87,497.27 L 1037.33,499.98 L 1053.80,503.87 L 1070.27,481.28 L 1086.73,500.42 L 1103.20,479.01 L 1119.67,438.27 L 1136.13,191.29 L 1152.60,350.44 L 1169.07,485.52 L 1185.53,315.26 L 1202.00,489.64" fill="none" stroke="#374151" stroke-width="2.2"/><circle cx="708.00" cy="514.93" r="2.2" fill="#374151"/><circle cx="724.47" cy="282.37" r="2.2" fill="#374151"/><circle cx="740.93" cy="446.40" r="2.2" fill="#374151"/><circle cx="757.40" cy="495.78" r="2.2" fill="#374151"/><circle cx="773.87" cy="512.99" r="2.2" fill="#374151"/><circle cx="790.33" cy="454.96" r="2.2" fill="#374151"/><circle cx="806.80" cy="467.80" r="2.2" fill="#374151"/><circle cx="823.27" cy="482.81" r="2.2" fill="#374151"/><circle cx="839.73" cy="490.01" r="2.2" fill="#374151"/><circle cx="856.20" cy="497.62" r="2.2" fill="#374151"/><circle cx="872.67" cy="391.03" r="2.2" fill="#374151"/><circle cx="889.13" cy="501.16" r="2.2" fill="#374151"/><circle cx="905.60" cy="477.76" r="2.2" fill="#374151"/><circle cx="922.07" cy="426.98" r="2.2" fill="#374151"/><circle cx="938.53" cy="381.14" r="2.2" fill="#374151"/><circle cx="955.00" cy="512.79" r="2.2" fill="#374151"/><circle cx="971.47" cy="368.83" r="2.2" fill="#374151"/><circle cx="987.93" cy="466.78" r="2.2" fill="#374151"/><circle cx="1004.40" cy="439.73" r="2.2" fill="#374151"/><circle cx="1020.87" cy="497.27" r="2.2" fill="#374151"/><circle cx="1037.33" cy="499.98" r="2.2" fill="#374151"/><circle cx="1053.80" cy="503.87" r="2.2" fill="#374151"/><circle cx="1070.27" cy="481.28" r="2.2" fill="#374151"/><circle cx="1086.73" cy="500.42" r="2.2" fill="#374151"/><circle cx="1103.20" cy="479.01" r="2.2" fill="#374151"/><circle cx="1119.67" cy="438.27" r="2.2" fill="#374151"/><circle cx="1136.13" cy="191.29" r="2.2" fill="#374151"/><circle cx="1152.60" cy="350.44" r="2.2" fill="#374151"/><circle cx="1169.07" cy="485.52" r="2.2" fill="#374151"/><circle cx="1185.53" cy="315.26" r="2.2" fill="#374151"/><circle cx="1202.00" cy="489.64" r="2.2" fill="#374151"/><path d="M 708.00,507.35 L 724.47,269.56 L 740.93,436.68 L 757.40,480.62 L 773.87,513.61 L 790.33,476.33 L 806.80,458.80 L 823.27,482.70 L 839.73,489.39 L 856.20,489.47 L 872.67,409.63 L 889.13,512.78 L 905.60,473.82 L 922.07,420.05 L 938.53,395.22 L 955.00,492.40 L 971.47,363.45 L 987.93,503.41 L 1004.40,427.82 L 1020.87,507.62 L 1037.33,505.33 L 1053.80,488.15 L 1070.27,474.35 L 1086.73,504.96 L 1103.20,475.00 L 1119.67,435.45 L 1136.13,195.53 L 1152.60,351.74 L 1169.07,480.00 L 1185.53,329.07 L 1202.00,488.32" fill="none" stroke="#374151" stroke-width="2.2"/><circle cx="708.00" cy="507.35" r="2.2" fill="#374151"/><circle cx="724.47" cy="269.56" r="2.2" fill="#374151"/><circle cx="740.93" cy="436.68" r="2.2" fill="#374151"/><circle cx="757.40" cy="480.62" r="2.2" fill="#374151"/><circle cx="773.87" cy="513.61" r="2.2" fill="#374151"/><circle cx="790.33" cy="476.33" r="2.2" fill="#374151"/><circle cx="806.80" cy="458.80" r="2.2" fill="#374151"/><circle cx="823.27" cy="482.70" r="2.2" fill="#374151"/><circle cx="839.73" cy="489.39" r="2.2" fill="#374151"/><circle cx="856.20" cy="489.47" r="2.2" fill="#374151"/><circle cx="872.67" cy="409.63" r="2.2" fill="#374151"/><circle cx="889.13" cy="512.78" r="2.2" fill="#374151"/><circle cx="905.60" cy="473.82" r="2.2" fill="#374151"/><circle cx="922.07" cy="420.05" r="2.2" fill="#374151"/><circle cx="938.53" cy="395.22" r="2.2" fill="#374151"/><circle cx="955.00" cy="492.40" r="2.2" fill="#374151"/><circle cx="971.47" cy="363.45" r="2.2" fill="#374151"/><circle cx="987.93" cy="503.41" r="2.2" fill="#374151"/><circle cx="1004.40" cy="427.82" r="2.2" fill="#374151"/><circle cx="1020.87" cy="507.62" r="2.2" fill="#374151"/><circle cx="1037.33" cy="505.33" r="2.2" fill="#374151"/><circle cx="1053.80" cy="488.15" r="2.2" fill="#374151"/><circle cx="1070.27" cy="474.35" r="2.2" fill="#374151"/><circle cx="1086.73" cy="504.96" r="2.2" fill="#374151"/><circle cx="1103.20" cy="475.00" r="2.2" fill="#374151"/><circle cx="1119.67" cy="435.45" r="2.2" fill="#374151"/><circle cx="1136.13" cy="195.53" r="2.2" fill="#374151"/><circle cx="1152.60" cy="351.74" r="2.2" fill="#374151"/><circle cx="1169.07" cy="480.00" r="2.2" fill="#374151"/><circle cx="1185.53" cy="329.07" r="2.2" fill="#374151"/><circle cx="1202.00" cy="488.32" r="2.2" fill="#374151"/><text class="label" text-anchor="middle" x="955.00" y="560">Number of labelled substrates</text><text class="label" text-anchor="middle" transform="rotate(-90 656 314.00)" x="656" y="314.00">EE MAE (percentage points)</text></g><g transform="translate(470,610)"><line x1="0" y1="0" x2="22" y2="0" stroke="#374151" stroke-width="2.5"/><text class="legend" x="28" y="4">B5</text><line x1="62.4" y1="0" x2="84.4" y2="0" stroke="#374151" stroke-width="2.5"/><text class="legend" x="90.4" y="4">P3</text><line x1="124.8" y1="0" x2="146.8" y2="0" stroke="#374151" stroke-width="2.5"/><text class="legend" x="152.8" y="4">P4</text></g><text class="subtitle" x="60" y="642">Guarded ensemble only; each point is the held-out substrate at that prefix. Lower is better.</text></svg>