<svg xmlns="http://www.w3.org/2000/svg" width="900" height="560" viewBox="0 0 900 560">
<rect width="100%" height="100%" fill="#f8f7f2" />
<text x="36" y="42" font-family="Arial" font-size="24" font-weight="700" fill="#25313b">2n retained conformer folding view</text>
<text x="36" y="68" font-family="Arial" font-size="13" fill="#52616b">PCA of high-level 3D shape and graph-foldback descriptors; blue = low-energy poses, red = high-energy poses.</text>
<rect x="54" y="82" width="490" height="370" fill="#ffffff" stroke="#c9c3b6" />
<line x1="70" y1="430" x2="520" y2="430" stroke="#89939b" stroke-width="1" />
<line x1="70" y1="430" x2="70" y2="80" stroke="#89939b" stroke-width="1" />
<text x="275" y="478" font-family="Arial" font-size="13" fill="#52616b">folding PC1</text>
<text x="16" y="255" transform="rotate(-90 16 255)" font-family="Arial" font-size="13" fill="#52616b">folding PC2</text>
<circle cx="70.02" cy="166.20" r="4" fill="#2563eb" opacity="0.68" />
<circle cx="70.02" cy="166.19" r="4" fill="#2563eb" opacity="0.68" />
<circle cx="70.01" cy="166.19" r="4" fill="#2563eb" opacity="0.68" />
<circle cx="70.04" cy="166.17" r="4" fill="#2563eb" opacity="0.68" />
<circle cx="70.02" cy="166.19" r="4" fill="#2563eb" opacity="0.68" />
<circle cx="70.01" cy="166.19" r="4" fill="#2563eb" opacity="0.68" />
<circle cx="70.02" cy="166.20" r="4" fill="#2563eb" opacity="0.68" />
<circle cx="70.02" cy="166.20" r="4" fill="#2563eb" opacity="0.68" />
<circle cx="70.06" cy="166.22" r="4" fill="#2563eb" opacity="0.68" />
<circle cx="70.01" cy="166.19" r="4" fill="#2563eb" opacity="0.68" />
<circle cx="70.02" cy="166.19" r="4" fill="#2563eb" opacity="0.68" />
<circle cx="70.03" cy="166.19" r="4" fill="#2563eb" opacity="0.68" />
<circle cx="70.01" cy="166.19" r="4" fill="#2563eb" opacity="0.68" />
<circle cx="70.02" cy="166.20" r="4" fill="#2563eb" opacity="0.68" />
<circle cx="70.02" cy="166.19" r="4" fill="#2563eb" opacity="0.68" />
<circle cx="70.02" cy="166.18" r="4" fill="#2563eb" opacity="0.68" />
<circle cx="70.00" cy="166.18" r="4" fill="#2563eb" opacity="0.68" />
<circle cx="70.01" cy="166.20" r="4" fill="#2563eb" opacity="0.68" />
<circle cx="70.02" cy="166.19" r="4" fill="#2563eb" opacity="0.68" />
<circle cx="70.02" cy="166.19" r="4" fill="#2563eb" opacity="0.68" />
<circle cx="70.01" cy="166.18" r="4" fill="#2563eb" opacity="0.68" />
<circle cx="70.01" cy="166.19" r="4" fill="#2563eb" opacity="0.68" />
<circle cx="70.02" cy="166.18" r="4" fill="#2563eb" opacity="0.68" />
<circle cx="70.02" cy="166.19" r="4" fill="#2563eb" opacity="0.68" />
<circle cx="70.01" cy="166.18" r="4" fill="#2563eb" opacity="0.68" />
<circle cx="70.02" cy="166.19" r="4" fill="#2563eb" opacity="0.68" />
<circle cx="70.02" cy="166.19" r="4" fill="#2563eb" opacity="0.68" />
<circle cx="70.03" cy="166.20" r="4" fill="#2563eb" opacity="0.68" />
<circle cx="70.03" cy="166.19" r="4" fill="#2563eb" opacity="0.68" />
<circle cx="70.01" cy="166.19" r="4" fill="#2563eb" opacity="0.68" />
<circle cx="70.02" cy="166.18" r="4" fill="#2563eb" opacity="0.68" />
<circle cx="70.01" cy="166.19" r="4" fill="#2563eb" opacity="0.68" />
<circle cx="70.01" cy="166.20" r="4" fill="#2563eb" opacity="0.68" />
<circle cx="70.01" cy="166.19" r="4" fill="#2563eb" opacity="0.68" />
<circle cx="70.03" cy="166.19" r="4" fill="#2563eb" opacity="0.68" />
<circle cx="70.02" cy="166.19" r="4" fill="#2563eb" opacity="0.68" />
<circle cx="70.01" cy="166.18" r="4" fill="#2563eb" opacity="0.68" />
<circle cx="70.02" cy="166.19" r="4" fill="#2563eb" opacity="0.68" />
<circle cx="70.02" cy="166.19" r="4" fill="#2563eb" opacity="0.68" />
<circle cx="70.01" cy="166.18" r="4" fill="#2563eb" opacity="0.68" />
<circle cx="70.03" cy="166.19" r="4" fill="#2563eb" opacity="0.68" />
<circle cx="70.02" cy="166.21" r="4" fill="#2563eb" opacity="0.68" />
<circle cx="70.02" cy="166.20" r="4" fill="#2563eb" opacity="0.68" />
<circle cx="70.01" cy="166.19" r="4" fill="#2563eb" opacity="0.68" />
<circle cx="70.03" cy="166.19" r="4" fill="#2563eb" opacity="0.68" />
<circle cx="70.02" cy="166.19" r="4" fill="#2563eb" opacity="0.68" />
<circle cx="70.02" cy="166.19" r="4" fill="#2563eb" opacity="0.68" />
<circle cx="70.03" cy="166.19" r="4" fill="#2563eb" opacity="0.68" />
<circle cx="70.02" cy="166.19" r="4" fill="#2563eb" opacity="0.68" />
<circle cx="70.01" cy="166.19" r="4" fill="#2563eb" opacity="0.68" />
<circle cx="70.02" cy="166.19" r="4" fill="#2563eb" opacity="0.68" />
<circle cx="70.01" cy="166.18" r="4" fill="#2563eb" opacity="0.68" />
<circle cx="70.02" cy="166.19" r="4" fill="#2563eb" opacity="0.68" />
<circle cx="70.01" cy="166.19" r="4" fill="#2563eb" opacity="0.68" />
<circle cx="70.02" cy="166.19" r="4" fill="#2563eb" opacity="0.68" />
<circle cx="70.01" cy="166.19" r="4" fill="#2563eb" opacity="0.68" />
<circle cx="70.02" cy="166.20" r="4" fill="#2563eb" opacity="0.68" />
<circle cx="70.01" cy="166.18" r="4" fill="#2563eb" opacity="0.68" />
<circle cx="70.02" cy="166.19" r="4" fill="#2563eb" opacity="0.68" />
<circle cx="70.01" cy="166.20" r="4" fill="#2563eb" opacity="0.68" />
<circle cx="70.02" cy="166.19" r="4" fill="#2563eb" opacity="0.68" />
<circle cx="70.01" cy="166.19" r="4" fill="#2563eb" opacity="0.68" />
<circle cx="70.03" cy="166.18" r="4" fill="#2563eb" opacity="0.68" />
<circle cx="70.02" cy="166.19" r="4" fill="#2563eb" opacity="0.68" />
<circle cx="70.03" cy="166.20" r="4" fill="#2563eb" opacity="0.68" />
<circle cx="70.01" cy="166.19" r="4" fill="#2563eb" opacity="0.68" />
<circle cx="70.01" cy="166.19" r="4" fill="#2563eb" opacity="0.68" />
<circle cx="70.01" cy="166.19" r="4" fill="#2563eb" opacity="0.68" />
<circle cx="70.01" cy="166.17" r="4" fill="#2563eb" opacity="0.68" />
<circle cx="70.01" cy="166.19" r="4" fill="#2563eb" opacity="0.68" />
<circle cx="70.04" cy="166.21" r="4" fill="#2563eb" opacity="0.68" />
<circle cx="70.02" cy="166.19" r="4" fill="#2563eb" opacity="0.68" />
<circle cx="70.02" cy="166.18" r="4" fill="#2563eb" opacity="0.68" />
<circle cx="70.02" cy="166.19" r="4" fill="#2563eb" opacity="0.68" />
<circle cx="70.02" cy="166.18" r="4" fill="#2563eb" opacity="0.68" />
<circle cx="70.02" cy="166.20" r="4" fill="#2563eb" opacity="0.68" />
<circle cx="70.02" cy="166.20" r="4" fill="#2563eb" opacity="0.68" />
<circle cx="70.02" cy="166.19" r="4" fill="#2563eb" opacity="0.68" />
<circle cx="70.02" cy="166.18" r="4" fill="#2563eb" opacity="0.68" />
<circle cx="70.01" cy="166.20" r="4" fill="#2563eb" opacity="0.68" />
<circle cx="70.01" cy="166.19" r="4" fill="#2563eb" opacity="0.68" />
<circle cx="70.01" cy="166.19" r="4" fill="#2563eb" opacity="0.68" />
<circle cx="70.02" cy="166.19" r="4" fill="#2563eb" opacity="0.68" />
<circle cx="70.01" cy="166.19" r="4" fill="#2563eb" opacity="0.68" />
<circle cx="70.02" cy="166.19" r="4" fill="#2563eb" opacity="0.68" />
<circle cx="70.01" cy="166.19" r="4" fill="#2563eb" opacity="0.68" />
<circle cx="70.01" cy="166.19" r="4" fill="#2563eb" opacity="0.68" />
<circle cx="70.01" cy="166.19" r="4" fill="#2563eb" opacity="0.68" />
<circle cx="70.03" cy="166.20" r="4" fill="#2563eb" opacity="0.68" />
<circle cx="70.01" cy="166.19" r="4" fill="#2563eb" opacity="0.68" />
<circle cx="70.02" cy="166.19" r="4" fill="#2563eb" opacity="0.68" />
<circle cx="70.01" cy="166.19" r="4" fill="#2563eb" opacity="0.68" />
<circle cx="70.01" cy="166.19" r="4" fill="#2563eb" opacity="0.68" />
<circle cx="70.02" cy="166.18" r="4" fill="#2563eb" opacity="0.68" />
<circle cx="70.02" cy="166.20" r="4" fill="#2563eb" opacity="0.68" />
<circle cx="70.01" cy="166.19" r="4" fill="#2563eb" opacity="0.68" />
<circle cx="70.02" cy="166.19" r="4" fill="#2563eb" opacity="0.68" />
<circle cx="70.02" cy="166.19" r="4" fill="#2563eb" opacity="0.68" />
<circle cx="70.01" cy="166.18" r="4" fill="#2563eb" opacity="0.68" />
<circle cx="70.01" cy="166.19" r="4" fill="#2563eb" opacity="0.68" />
<circle cx="478.05" cy="278.17" r="4" fill="#dc2626" opacity="0.68" />
<circle cx="494.05" cy="334.57" r="4" fill="#dc2626" opacity="0.68" />
<circle cx="520.00" cy="426.07" r="4" fill="#dc2626" opacity="0.68" />
<circle cx="514.31" cy="406.06" r="4" fill="#dc2626" opacity="0.68" />
<circle cx="482.29" cy="293.13" r="4" fill="#dc2626" opacity="0.68" />
<circle cx="399.85" cy="145.34" r="4" fill="#dc2626" opacity="0.68" />
<circle cx="399.85" cy="145.33" r="4" fill="#dc2626" opacity="0.68" />
<circle cx="475.01" cy="267.44" r="4" fill="#dc2626" opacity="0.68" />
<circle cx="399.85" cy="145.33" r="4" fill="#dc2626" opacity="0.68" />
<circle cx="399.84" cy="145.33" r="4" fill="#dc2626" opacity="0.68" />
<circle cx="473.45" cy="261.93" r="4" fill="#dc2626" opacity="0.68" />
<circle cx="399.85" cy="145.34" r="4" fill="#dc2626" opacity="0.68" />
<circle cx="516.58" cy="430.00" r="4" fill="#dc2626" opacity="0.68" />
<circle cx="399.86" cy="145.34" r="4" fill="#dc2626" opacity="0.68" />
<circle cx="425.19" cy="80.00" r="4" fill="#dc2626" opacity="0.68" />
<circle cx="425.19" cy="80.00" r="4" fill="#dc2626" opacity="0.68" />
<circle cx="425.20" cy="80.01" r="4" fill="#dc2626" opacity="0.68" />
<circle cx="425.20" cy="80.02" r="4" fill="#dc2626" opacity="0.68" />
<circle cx="399.85" cy="145.34" r="4" fill="#dc2626" opacity="0.68" />
<circle cx="399.85" cy="145.34" r="4" fill="#dc2626" opacity="0.68" />
<circle cx="399.85" cy="145.34" r="4" fill="#dc2626" opacity="0.68" />
<circle cx="399.85" cy="145.34" r="4" fill="#dc2626" opacity="0.68" />
<circle cx="399.85" cy="145.34" r="4" fill="#dc2626" opacity="0.68" />
<circle cx="399.85" cy="145.33" r="4" fill="#dc2626" opacity="0.68" />
<circle cx="399.85" cy="145.33" r="4" fill="#dc2626" opacity="0.68" />
<circle cx="399.85" cy="145.34" r="4" fill="#dc2626" opacity="0.68" />
<circle cx="399.85" cy="145.33" r="4" fill="#dc2626" opacity="0.68" />
<circle cx="399.85" cy="145.33" r="4" fill="#dc2626" opacity="0.68" />
<circle cx="399.86" cy="145.33" r="4" fill="#dc2626" opacity="0.68" />
<circle cx="399.85" cy="145.33" r="4" fill="#dc2626" opacity="0.68" />
<circle cx="399.86" cy="145.34" r="4" fill="#dc2626" opacity="0.68" />
<circle cx="399.85" cy="145.33" r="4" fill="#dc2626" opacity="0.68" />
<circle cx="399.86" cy="145.34" r="4" fill="#dc2626" opacity="0.68" />
<circle cx="399.86" cy="145.33" r="4" fill="#dc2626" opacity="0.68" />
<circle cx="399.85" cy="145.33" r="4" fill="#dc2626" opacity="0.68" />
<circle cx="399.85" cy="145.33" r="4" fill="#dc2626" opacity="0.68" />
<circle cx="399.85" cy="145.33" r="4" fill="#dc2626" opacity="0.68" />
<circle cx="399.85" cy="145.33" r="4" fill="#dc2626" opacity="0.68" />
<circle cx="399.85" cy="145.33" r="4" fill="#dc2626" opacity="0.68" />
<circle cx="399.85" cy="145.34" r="4" fill="#dc2626" opacity="0.68" />
<circle cx="399.85" cy="145.33" r="4" fill="#dc2626" opacity="0.68" />
<circle cx="399.85" cy="145.33" r="4" fill="#dc2626" opacity="0.68" />
<circle cx="399.85" cy="145.33" r="4" fill="#dc2626" opacity="0.68" />
<circle cx="399.85" cy="145.33" r="4" fill="#dc2626" opacity="0.68" />
<circle cx="399.84" cy="145.33" r="4" fill="#dc2626" opacity="0.68" />
<circle cx="399.85" cy="145.34" r="4" fill="#dc2626" opacity="0.68" />
<circle cx="399.84" cy="145.33" r="4" fill="#dc2626" opacity="0.68" />
<circle cx="399.85" cy="145.33" r="4" fill="#dc2626" opacity="0.68" />
<circle cx="399.85" cy="145.34" r="4" fill="#dc2626" opacity="0.68" />
<circle cx="399.85" cy="145.34" r="4" fill="#dc2626" opacity="0.68" />
<circle cx="399.85" cy="145.33" r="4" fill="#dc2626" opacity="0.68" />
<circle cx="399.85" cy="145.34" r="4" fill="#dc2626" opacity="0.68" />
<circle cx="399.85" cy="145.33" r="4" fill="#dc2626" opacity="0.68" />
<circle cx="399.85" cy="145.33" r="4" fill="#dc2626" opacity="0.68" />
<circle cx="399.85" cy="145.33" r="4" fill="#dc2626" opacity="0.68" />
<circle cx="399.86" cy="145.34" r="4" fill="#dc2626" opacity="0.68" />
<circle cx="399.85" cy="145.33" r="4" fill="#dc2626" opacity="0.68" />
<circle cx="399.85" cy="145.34" r="4" fill="#dc2626" opacity="0.68" />
<circle cx="399.84" cy="145.32" r="4" fill="#dc2626" opacity="0.68" />
<circle cx="399.85" cy="145.34" r="4" fill="#dc2626" opacity="0.68" />
<circle cx="399.84" cy="145.34" r="4" fill="#dc2626" opacity="0.68" />
<circle cx="399.85" cy="145.33" r="4" fill="#dc2626" opacity="0.68" />
<circle cx="399.85" cy="145.33" r="4" fill="#dc2626" opacity="0.68" />
<circle cx="399.86" cy="145.34" r="4" fill="#dc2626" opacity="0.68" />
<circle cx="399.85" cy="145.34" r="4" fill="#dc2626" opacity="0.68" />
<circle cx="399.85" cy="145.33" r="4" fill="#dc2626" opacity="0.68" />
<circle cx="399.84" cy="145.34" r="4" fill="#dc2626" opacity="0.68" />
<circle cx="399.85" cy="145.33" r="4" fill="#dc2626" opacity="0.68" />
<circle cx="399.84" cy="145.33" r="4" fill="#dc2626" opacity="0.68" />
<circle cx="399.85" cy="145.33" r="4" fill="#dc2626" opacity="0.68" />
<circle cx="399.85" cy="145.34" r="4" fill="#dc2626" opacity="0.68" />
<circle cx="399.85" cy="145.33" r="4" fill="#dc2626" opacity="0.68" />
<circle cx="399.85" cy="145.33" r="4" fill="#dc2626" opacity="0.68" />
<circle cx="399.85" cy="145.33" r="4" fill="#dc2626" opacity="0.68" />
<circle cx="399.85" cy="145.33" r="4" fill="#dc2626" opacity="0.68" />
<circle cx="399.85" cy="145.33" r="4" fill="#dc2626" opacity="0.68" />
<circle cx="399.85" cy="145.34" r="4" fill="#dc2626" opacity="0.68" />
<circle cx="399.85" cy="145.33" r="4" fill="#dc2626" opacity="0.68" />
<circle cx="399.85" cy="145.33" r="4" fill="#dc2626" opacity="0.68" />
<circle cx="399.85" cy="145.33" r="4" fill="#dc2626" opacity="0.68" />
<circle cx="399.85" cy="145.34" r="4" fill="#dc2626" opacity="0.68" />
<circle cx="399.85" cy="145.33" r="4" fill="#dc2626" opacity="0.68" />
<circle cx="399.86" cy="145.34" r="4" fill="#dc2626" opacity="0.68" />
<circle cx="399.85" cy="145.34" r="4" fill="#dc2626" opacity="0.68" />
<circle cx="399.85" cy="145.34" r="4" fill="#dc2626" opacity="0.68" />
<circle cx="399.85" cy="145.33" r="4" fill="#dc2626" opacity="0.68" />
<circle cx="399.85" cy="145.33" r="4" fill="#dc2626" opacity="0.68" />
<circle cx="399.85" cy="145.33" r="4" fill="#dc2626" opacity="0.68" />
<circle cx="399.85" cy="145.33" r="4" fill="#dc2626" opacity="0.68" />
<circle cx="399.86" cy="145.33" r="4" fill="#dc2626" opacity="0.68" />
<circle cx="399.85" cy="145.34" r="4" fill="#dc2626" opacity="0.68" />
<circle cx="399.85" cy="145.33" r="4" fill="#dc2626" opacity="0.68" />
<circle cx="399.85" cy="145.33" r="4" fill="#dc2626" opacity="0.68" />
<circle cx="399.85" cy="145.33" r="4" fill="#dc2626" opacity="0.68" />
<circle cx="399.85" cy="145.34" r="4" fill="#dc2626" opacity="0.68" />
<circle cx="399.85" cy="145.34" r="4" fill="#dc2626" opacity="0.68" />
<circle cx="399.85" cy="145.33" r="4" fill="#dc2626" opacity="0.68" />
<circle cx="399.85" cy="145.34" r="4" fill="#dc2626" opacity="0.68" />
<circle cx="399.85" cy="145.34" r="4" fill="#dc2626" opacity="0.68" />
<circle cx="399.85" cy="145.33" r="4" fill="#dc2626" opacity="0.68" />
<circle cx="610" cy="96" r="5" fill="#2563eb" opacity="0.75" />
<text x="622" y="101" font-family="Arial" font-size="13" fill="#25313b">low-energy retained poses</text>
<circle cx="610" cy="120" r="5" fill="#dc2626" opacity="0.75" />
<text x="622" y="125" font-family="Arial" font-size="13" fill="#25313b">high-energy retained poses</text>
<text x="590" y="166" font-family="Arial" font-size="17" font-weight="700" fill="#25313b">Bucket distributions</text>
<text x="590" y="192" font-family="Arial" font-size="13" font-weight="700" fill="#25313b">Rg</text>
<polyline points="620.01,210.00 620.01,210.35 620.00,210.70 620.02,211.05 620.01,211.40 620.00,211.75 620.01,212.10 620.01,212.45 620.04,212.80 620.01,213.15 620.01,213.50 620.01,213.85 620.01,214.20 620.01,214.55 620.01,214.90 620.01,215.25 620.00,215.60 620.01,215.95 620.01,216.30 620.01,216.65 620.00,217.00 620.00,217.35 620.02,217.70 620.01,218.05 620.01,218.40 620.01,218.75 620.01,219.10 620.02,219.45 620.01,219.80 620.01,220.15 620.01,220.50 620.01,220.85 620.00,221.20 620.01,221.55 620.02,221.90 620.01,222.25 620.01,222.60 620.01,222.95 620.01,223.30 620.01,223.65 620.01,224.00 620.01,224.35 620.01,224.70 620.00,225.05 620.01,225.40 620.01,225.75 620.01,226.10 620.01,226.45 620.01,226.80 620.01,227.15 620.01,227.50 620.00,227.85 620.01,228.20 620.01,228.55 620.01,228.90 620.01,229.25 620.01,229.60 620.00,229.95 620.01,230.30 620.01,230.65 620.02,231.00 620.01,231.35 620.02,231.70 620.01,232.05 620.01,232.40 620.01,232.75 620.00,233.10 620.01,233.45 620.00,233.80 620.01,234.15 620.02,234.50 620.01,234.85 620.01,235.20 620.01,235.55 620.01,235.90 620.01,236.25 620.00,236.60 620.01,236.95 620.01,237.30 620.01,237.65 620.01,238.00 620.00,238.35 620.01,238.70 620.01,239.05 620.01,239.40 620.01,239.75 620.01,240.10 620.01,240.45 620.01,240.80 620.00,241.15 620.01,241.50 620.01,241.85 620.01,242.20 620.00,242.55 620.01,242.90 620.01,243.25 620.01,243.60 620.01,243.95 620.00,244.30 620.01,244.65" fill="none" stroke="#2563eb" stroke-width="2" opacity="0.9" />
<polyline points="860.00,210.00 860.00,210.35 860.00,210.70 859.99,211.05 859.99,211.40 821.84,211.75 821.84,212.10 860.00,212.45 821.84,212.80 821.84,213.15 859.99,213.50 821.85,213.85 853.14,214.20 821.85,214.55 846.69,214.90 846.70,215.25 846.70,215.60 846.70,215.95 821.85,216.30 821.85,216.65 821.84,217.00 821.84,217.35 821.85,217.70 821.84,218.05 821.84,218.40 821.84,218.75 821.85,219.10 821.84,219.45 821.85,219.80 821.85,220.15 821.85,220.50 821.84,220.85 821.85,221.20 821.84,221.55 821.85,221.90 821.84,222.25 821.84,222.60 821.84,222.95 821.84,223.30 821.84,223.65 821.84,224.00 821.85,224.35 821.84,224.70 821.84,225.05 821.84,225.40 821.85,225.75 821.84,226.10 821.84,226.45 821.85,226.80 821.84,227.15 821.84,227.50 821.85,227.85 821.84,228.20 821.85,228.55 821.84,228.90 821.85,229.25 821.84,229.60 821.85,229.95 821.84,230.30 821.85,230.65 821.84,231.00 821.84,231.35 821.85,231.70 821.85,232.05 821.84,232.40 821.84,232.75 821.84,233.10 821.85,233.45 821.84,233.80 821.84,234.15 821.85,234.50 821.85,234.85 821.84,235.20 821.84,235.55 821.84,235.90 821.84,236.25 821.85,236.60 821.84,236.95 821.84,237.30 821.84,237.65 821.85,238.00 821.84,238.35 821.85,238.70 821.84,239.05 821.84,239.40 821.85,239.75 821.84,240.10 821.84,240.45 821.85,240.80 821.85,241.15 821.84,241.50 821.84,241.85 821.84,242.20 821.84,242.55 821.84,242.90 821.85,243.25 821.85,243.60 821.84,243.95 821.84,244.30 821.85,244.65" fill="none" stroke="#dc2626" stroke-width="2" opacity="0.9" />
<line x1="620" y1="254" x2="860" y2="254" stroke="#c9c3b6" />
<text x="590" y="292" font-family="Arial" font-size="13" font-weight="700" fill="#25313b">anisotropy</text>
<polyline points="620.02,310.00 620.01,310.35 620.00,310.70 620.02,311.05 620.02,311.40 620.01,311.75 620.02,312.10 620.02,312.45 620.05,312.80 620.01,313.15 620.02,313.50 620.02,313.85 620.01,314.20 620.02,314.55 620.01,314.90 620.01,315.25 620.00,315.60 620.01,315.95 620.01,316.30 620.01,316.65 620.01,317.00 620.01,317.35 620.02,317.70 620.01,318.05 620.02,318.40 620.02,318.75 620.01,319.10 620.02,319.45 620.01,319.80 620.01,320.15 620.01,320.50 620.01,320.85 620.00,321.20 620.01,321.55 620.02,321.90 620.01,322.25 620.00,322.60 620.02,322.95 620.02,323.30 620.00,323.65 620.02,324.00 620.01,324.35 620.01,324.70 620.01,325.05 620.02,325.40 620.01,325.75 620.01,326.10 620.02,326.45 620.01,326.80 620.01,327.15 620.01,327.50 620.02,327.85 620.02,328.20 620.01,328.55 620.01,328.90 620.00,329.25 620.01,329.60 620.01,329.95 620.02,330.30 620.01,330.65 620.01,331.00 620.01,331.35 620.02,331.70 620.02,332.05 620.02,332.40 620.02,332.75 620.01,333.10 620.01,333.45 620.01,333.80 620.01,334.15 620.03,334.50 620.01,334.85 620.01,335.20 620.02,335.55 620.01,335.90 620.01,336.25 620.01,336.60 620.01,336.95 620.02,337.30 620.02,337.65 620.01,338.00 620.01,338.35 620.01,338.70 620.01,339.05 620.02,339.40 620.01,339.75 620.01,340.10 620.02,340.45 620.01,340.80 620.01,341.15 620.02,341.50 620.01,341.85 620.01,342.20 620.01,342.55 620.01,342.90 620.01,343.25 620.02,343.60 620.01,343.95 620.01,344.30 620.01,344.65" fill="none" stroke="#2563eb" stroke-width="2" opacity="0.9" />
<polyline points="860.00,310.00 860.00,310.35 860.00,310.70 860.00,311.05 860.00,311.40 848.41,311.75 848.41,312.10 860.00,312.45 848.41,312.80 848.41,313.15 860.00,313.50 848.41,313.85 858.67,314.20 848.41,314.55 847.60,314.90 847.59,315.25 847.60,315.60 847.59,315.95 848.41,316.30 848.41,316.65 848.41,317.00 848.41,317.35 848.40,317.70 848.41,318.05 848.41,318.40 848.41,318.75 848.41,319.10 848.41,319.45 848.41,319.80 848.41,320.15 848.40,320.50 848.41,320.85 848.41,321.20 848.41,321.55 848.41,321.90 848.41,322.25 848.41,322.60 848.41,322.95 848.41,323.30 848.41,323.65 848.41,324.00 848.41,324.35 848.41,324.70 848.41,325.05 848.41,325.40 848.41,325.75 848.40,326.10 848.40,326.45 848.41,326.80 848.41,327.15 848.41,327.50 848.41,327.85 848.41,328.20 848.41,328.55 848.41,328.90 848.40,329.25 848.41,329.60 848.41,329.95 848.41,330.30 848.41,330.65 848.41,331.00 848.41,331.35 848.41,331.70 848.41,332.05 848.41,332.40 848.41,332.75 848.40,333.10 848.41,333.45 848.41,333.80 848.41,334.15 848.41,334.50 848.41,334.85 848.41,335.20 848.41,335.55 848.41,335.90 848.41,336.25 848.41,336.60 848.41,336.95 848.41,337.30 848.41,337.65 848.41,338.00 848.41,338.35 848.41,338.70 848.40,339.05 848.41,339.40 848.41,339.75 848.41,340.10 848.41,340.45 848.41,340.80 848.41,341.15 848.41,341.50 848.41,341.85 848.41,342.20 848.41,342.55 848.41,342.90 848.41,343.25 848.41,343.60 848.41,343.95 848.41,344.30 848.41,344.65" fill="none" stroke="#dc2626" stroke-width="2" opacity="0.9" />
<line x1="620" y1="354" x2="860" y2="354" stroke="#c9c3b6" />
<text x="590" y="392" font-family="Arial" font-size="13" font-weight="700" fill="#25313b">foldback</text>
<polyline points="860.00,410.00 860.00,410.35 860.00,410.70 860.00,411.05 860.00,411.40 860.00,411.75 860.00,412.10 860.00,412.45 860.00,412.80 860.00,413.15 860.00,413.50 860.00,413.85 860.00,414.20 860.00,414.55 860.00,414.90 860.00,415.25 860.00,415.60 860.00,415.95 860.00,416.30 860.00,416.65 860.00,417.00 860.00,417.35 860.00,417.70 860.00,418.05 860.00,418.40 860.00,418.75 860.00,419.10 860.00,419.45 860.00,419.80 860.00,420.15 860.00,420.50 860.00,420.85 860.00,421.20 860.00,421.55 860.00,421.90 860.00,422.25 860.00,422.60 860.00,422.95 860.00,423.30 860.00,423.65 860.00,424.00 860.00,424.35 860.00,424.70 860.00,425.05 860.00,425.40 860.00,425.75 860.00,426.10 860.00,426.45 860.00,426.80 860.00,427.15 860.00,427.50 860.00,427.85 860.00,428.20 860.00,428.55 860.00,428.90 860.00,429.25 860.00,429.60 860.00,429.95 860.00,430.30 860.00,430.65 860.00,431.00 860.00,431.35 860.00,431.70 860.00,432.05 860.00,432.40 860.00,432.75 860.00,433.10 860.00,433.45 860.00,433.80 860.00,434.15 860.00,434.50 860.00,434.85 860.00,435.20 860.00,435.55 860.00,435.90 860.00,436.25 860.00,436.60 860.00,436.95 860.00,437.30 860.00,437.65 860.00,438.00 860.00,438.35 860.00,438.70 860.00,439.05 860.00,439.40 860.00,439.75 860.00,440.10 860.00,440.45 860.00,440.80 860.00,441.15 860.00,441.50 860.00,441.85 860.00,442.20 860.00,442.55 860.00,442.90 860.00,443.25 860.00,443.60 860.00,443.95 860.00,444.30 860.00,444.65" fill="none" stroke="#2563eb" stroke-width="2" opacity="0.9" />
<polyline points="620.00,410.00 620.00,410.35 620.00,410.70 620.00,411.05 620.00,411.40 654.29,411.75 654.29,412.10 620.00,412.45 654.29,412.80 654.29,413.15 620.00,413.50 654.29,413.85 620.00,414.20 654.29,414.55 620.00,414.90 620.00,415.25 620.00,415.60 620.00,415.95 654.29,416.30 654.29,416.65 654.29,417.00 654.29,417.35 654.29,417.70 654.29,418.05 654.29,418.40 654.29,418.75 654.29,419.10 654.29,419.45 654.29,419.80 654.29,420.15 654.29,420.50 654.29,420.85 654.29,421.20 654.29,421.55 654.29,421.90 654.29,422.25 654.29,422.60 654.29,422.95 654.29,423.30 654.29,423.65 654.29,424.00 654.29,424.35 654.29,424.70 654.29,425.05 654.29,425.40 654.29,425.75 654.29,426.10 654.29,426.45 654.29,426.80 654.29,427.15 654.29,427.50 654.29,427.85 654.29,428.20 654.29,428.55 654.29,428.90 654.29,429.25 654.29,429.60 654.29,429.95 654.29,430.30 654.29,430.65 654.29,431.00 654.29,431.35 654.29,431.70 654.29,432.05 654.29,432.40 654.29,432.75 654.29,433.10 654.29,433.45 654.29,433.80 654.29,434.15 654.29,434.50 654.29,434.85 654.29,435.20 654.29,435.55 654.29,435.90 654.29,436.25 654.29,436.60 654.29,436.95 654.29,437.30 654.29,437.65 654.29,438.00 654.29,438.35 654.29,438.70 654.29,439.05 654.29,439.40 654.29,439.75 654.29,440.10 654.29,440.45 654.29,440.80 654.29,441.15 654.29,441.50 654.29,441.85 654.29,442.20 654.29,442.55 654.29,442.90 654.29,443.25 654.29,443.60 654.29,443.95 654.29,444.30 654.29,444.65" fill="none" stroke="#dc2626" stroke-width="2" opacity="0.9" />
<line x1="620" y1="454" x2="860" y2="454" stroke="#c9c3b6" />
</svg>
